<?xml version="1.0" standalone="no"?><!DOCTYPE svg PUBLIC "-//W3C//DTD SVG 1.1//EN" "http://www.w3.org/Graphics/SVG/1.1/DTD/svg11.dtd"><svg t="1583134835654" class="icon" viewBox="0 0 1024 1024" version="1.1" xmlns="http://www.w3.org/2000/svg" p-id="1160" xmlns:xlink="http://www.w3.org/1999/xlink" width="200" height="200"><defs><style type="text/css"></style></defs><path d="M868.576 896H155.424V480c0-17.664-13.312-32-29.696-32-16.416 0-29.728 14.336-29.728 32v480h832V480c0-17.664-13.312-32-29.728-32-16.384 0-29.696 14.336-29.696 32v416z" fill="#026BFF" p-id="1161"></path><path d="M544 645.504V96a32 32 0 0 0-64 0v549.504l-171.648-171.648a32 32 0 0 0-45.248 45.248l226.24 226.24a31.904 31.904 0 0 0 45.28 0l226.272-226.24a32 32 0 1 0-45.248-45.248L544 645.504z" fill="#026BFF" p-id="1162"></path></svg>