<?xml version="1.0" encoding="UTF-8"?>
<svg width="32px" height="32px" viewBox="0 0 32 32" version="1.1" xmlns="http://www.w3.org/2000/svg" xmlns:xlink="http://www.w3.org/1999/xlink">
    <!-- Generator: Sketch 54.1 (76490) - https://sketchapp.com -->
    <title>qrcode</title>
    <desc>Created with Sketch.</desc>
    <g id="Symbols" stroke="none" stroke-width="1" fill="none" fill-rule="evenodd">
        <g id="list-it-iem-copy-6" transform="translate(-833.000000, -57.000000)">
            <g id="Group-8-Copy">
                <g id="qrcode" transform="translate(833.000000, 57.000000)">
                    <rect id="Rectangle" fill="#FFFFFF" x="0" y="0" width="32" height="32"></rect>
                    <g transform="translate(4.000000, 4.000000)" fill="#000000" fill-rule="nonzero">
                        <rect id="Rectangle" opacity="0" x="0" y="0" width="24" height="24"></rect>
                        <path d="M7.5,1.5 L1.5,1.5 L1.5,7.5 L7.5,7.5 L7.5,1.5 Z M9,0 L9,0 L9,9 L0,9 L0,0 L9,0 Z M3,3 L6,3 L6,6 L3,6 L3,3 Z M22.5,1.5 L16.5,1.5 L16.5,7.5 L22.5,7.5 L22.5,1.5 Z M24,0 L24,0 L24,9 L15,9 L15,0 L24,0 Z M18,3 L21,3 L21,6 L18,6 L18,3 Z M7.5,16.5 L1.5,16.5 L1.5,22.5 L7.5,22.5 L7.5,16.5 Z M9,15 L9,15 L9,24 L0,24 L0,15 L9,15 Z M3,18 L6,18 L6,21 L3,21 L3,18 Z M10.5,0 L12,0 L12,1.5 L10.5,1.5 L10.5,0 Z M12,1.5 L13.5,1.5 L13.5,3 L12,3 L12,1.5 Z M10.5,3 L12,3 L12,4.5 L10.5,4.5 L10.5,3 Z M12,4.5 L13.5,4.5 L13.5,6 L12,6 L12,4.5 Z M10.5,6 L12,6 L12,7.5 L10.5,7.5 L10.5,6 Z M12,7.5 L13.5,7.5 L13.5,9 L12,9 L12,7.5 Z M10.5,9 L12,9 L12,10.5 L10.5,10.5 L10.5,9 Z M10.5,12 L12,12 L12,13.5 L10.5,13.5 L10.5,12 Z M12,13.5 L13.5,13.5 L13.5,15 L12,15 L12,13.5 Z M10.5,15 L12,15 L12,16.5 L10.5,16.5 L10.5,15 Z M12,16.5 L13.5,16.5 L13.5,18 L12,18 L12,16.5 Z M10.5,18 L12,18 L12,19.5 L10.5,19.5 L10.5,18 Z M12,19.5 L13.5,19.5 L13.5,21 L12,21 L12,19.5 Z M10.5,21 L12,21 L12,22.5 L10.5,22.5 L10.5,21 Z M12,22.5 L13.5,22.5 L13.5,24 L12,24 L12,22.5 Z M22.5,12 L24,12 L24,13.5 L22.5,13.5 L22.5,12 Z M1.5,12 L3,12 L3,13.5 L1.5,13.5 L1.5,12 Z M3,10.5 L4.5,10.5 L4.5,12 L3,12 L3,10.5 Z M0,10.5 L1.5,10.5 L1.5,12 L0,12 L0,10.5 Z M6,10.5 L7.5,10.5 L7.5,12 L6,12 L6,10.5 Z M7.5,12 L9,12 L9,13.5 L7.5,13.5 L7.5,12 Z M9,10.5 L10.5,10.5 L10.5,12 L9,12 L9,10.5 Z M13.5,12 L15,12 L15,13.5 L13.5,13.5 L13.5,12 Z M15,10.5 L16.5,10.5 L16.5,12 L15,12 L15,10.5 Z M16.5,12 L18,12 L18,13.5 L16.5,13.5 L16.5,12 Z M18,10.5 L19.5,10.5 L19.5,12 L18,12 L18,10.5 Z M19.5,12 L21,12 L21,13.5 L19.5,13.5 L19.5,12 Z M21,10.5 L22.5,10.5 L22.5,12 L21,12 L21,10.5 Z M22.5,15 L24,15 L24,16.5 L22.5,16.5 L22.5,15 Z M13.5,15 L15,15 L15,16.5 L13.5,16.5 L13.5,15 Z M15,13.5 L16.5,13.5 L16.5,15 L15,15 L15,13.5 Z M16.5,15 L18,15 L18,16.5 L16.5,16.5 L16.5,15 Z M19.5,15 L21,15 L21,16.5 L19.5,16.5 L19.5,15 Z M21,13.5 L22.5,13.5 L22.5,15 L21,15 L21,13.5 Z M22.5,18 L24,18 L24,19.5 L22.5,19.5 L22.5,18 Z M13.5,18 L15,18 L15,19.5 L13.5,19.5 L13.5,18 Z M15,16.5 L16.5,16.5 L16.5,18 L15,18 L15,16.5 Z M18,16.5 L19.5,16.5 L19.5,18 L18,18 L18,16.5 Z M19.5,18 L21,18 L21,19.5 L19.5,19.5 L19.5,18 Z M21,16.5 L22.5,16.5 L22.5,18 L21,18 L21,16.5 Z M22.5,21 L24,21 L24,22.5 L22.5,22.5 L22.5,21 Z M15,19.5 L16.5,19.5 L16.5,21 L15,21 L15,19.5 Z M16.5,21 L18,21 L18,22.5 L16.5,22.5 L16.5,21 Z M18,19.5 L19.5,19.5 L19.5,21 L18,21 L18,19.5 Z M19.5,21 L21,21 L21,22.5 L19.5,22.5 L19.5,21 Z M15,22.5 L16.5,22.5 L16.5,24 L15,24 L15,22.5 Z M18,22.5 L19.5,22.5 L19.5,24 L18,24 L18,22.5 Z M21,22.5 L22.5,22.5 L22.5,24 L21,24 L21,22.5 Z" id="Shape"></path>
                    </g>
                </g>
            </g>
        </g>
    </g>
</svg>